<!DOCTYPE svg PUBLIC "-//W3C//DTD SVG 1.1//EN" "http://www.w3.org/Graphics/SVG/1.1/DTD/svg11.dtd">
<!-- Uploaded to: SVG Repo, www.svgrepo.com, Transformed by: SVG Repo Mixer Tools -->
<svg height="800px" width="800px" version="1.1" id="Layer_1" xmlns="http://www.w3.org/2000/svg" xmlns:xlink="http://www.w3.org/1999/xlink" viewBox="0 0 512 512" xml:space="preserve" fill="#000000">
<g id="SVGRepo_bgCarrier" stroke-width="0"/>
<g id="SVGRepo_tracerCarrier" stroke-linecap="round" stroke-linejoin="round"/>
<g id="SVGRepo_iconCarrier"> <path style="fill:#25B6D2;" d="M336,168C336,75.2,260.8,0,168,0C81.1,0,0,81.1,0,168c0,92.8,75.2,168,168,168S336,260.8,336,168z"/> <path style="fill:#FFFFFF;" d="M244.2,168c0-17.6-1.7-34.3-4.6-50c50.7,14.4,86.5,39.6,96.4,47c-0.1-7.1-0.7-14-1.7-20.9 c-18.4-12.4-53.2-32.5-98.6-43.9C224.4,54.8,204.2,20,191.8,1.6C185,0.7,178,0.2,171,0c7.5,9.9,32.7,45.7,47,96.4 c-15.7-2.9-32.4-4.6-50-4.6s-34.3,1.7-50,4.6C132.4,45.8,157.5,9.9,165,0c-7.1,0.2-14.1,0.8-21.1,2c-12.4,18.5-32.4,53.2-43.6,98.2 c-45.1,11.3-79.7,31.2-98.2,43.6c-1.2,7-1.9,14-2,21.1c9.9-7.5,45.7-32.7,96.4-47c-2.9,15.7-4.6,32.4-4.6,50s1.7,34.3,4.6,50 C45.8,203.6,9.9,178.4,0,171c0.1,7.1,0.7,14,1.7,20.9c18.4,12.4,53.2,32.5,98.6,43.9c11.4,45.4,31.5,80.2,43.9,98.6 c6.8,1,13.8,1.5,20.9,1.7c-7.4-9.9-32.7-45.7-47-96.4c15.7,2.9,32.4,4.6,50,4.6s34.3-1.7,50-4.6c-14.4,50.7-39.6,86.5-47,96.4 c7.1-0.1,14-0.7,20.9-1.7c12.4-18.4,32.5-53.2,43.9-98.6c45.4-11.4,80.2-31.5,98.6-43.9c1-6.8,1.5-13.8,1.7-20.9 c-9.9,7.4-45.7,32.7-96.4,47C242.5,202.3,244.2,185.6,244.2,168z M222.3,222.3c-16.9,3.6-35.1,5.9-54.3,5.9s-37.4-2.3-54.3-5.9 c-3.6-16.9-5.9-35.1-5.9-54.3s2.3-37.4,5.9-54.3c16.9-3.6,35.1-5.9,54.3-5.9s37.4,2.3,54.3,5.9c3.6,16.9,5.9,35.1,5.9,54.3 S225.9,205.4,222.3,222.3z"/> <circle cx="443.3" cy="480.5" r="31.5"/> <circle cx="348.3" cy="480.5" r="31.5"/> <polygon style="fill:#2C3E50;" points="324.8,327.2 304.1,266 250.5,266 250.5,250 315.6,250 340,322.1 "/> <polygon style="fill:#E04F5F;" points="285,313.6 322.8,435 468.7,435 512,313.6 "/> </g>
</svg>